<svg xmlns="http://www.w3.org/2000/svg" viewBox="0 0 256 230" width="200" height="180">
	<style>
		tspan { white-space:pre }
		.shp0 { fill: #ffffff } 
		.shp1 { fill: #53c1de } 
	</style>
	<path id="Layer" class="shp0" d="M0.75 114.75C0.75 133.97 19.52 151.9 49.1 162.01C43.19 191.75 48.04 215.72 64.23 225.06C80.88 234.66 105.68 228.01 129.21 207.44C152.16 227.18 175.34 234.95 191.52 225.59C208.15 215.96 213.21 190.36 207.14 159.7C237.95 149.51 255.18 134.22 255.18 114.75C255.18 95.98 236.39 79.74 207.21 69.7C213.74 37.76 208.2 14.38 191.34 4.65C175.08 -4.72 151.62 3.45 128.34 23.71C104.12 2.21 80.9 -4.36 64.05 5.39C47.81 14.79 43.17 39.2 49.1 69.49C20.52 79.45 0.75 96.06 0.75 114.75Z" />
	<path id="Layer" class="shp1" d="M201.03 79.67C200.42 79.47 199.82 79.27 199.22 79.07C198.61 78.87 198.01 78.67 197.4 78.48C196.8 78.29 196.19 78.1 195.58 77.92C194.97 77.74 194.36 77.56 193.75 77.38C193.85 76.97 193.95 76.56 194.05 76.15C194.15 75.73 194.24 75.32 194.34 74.91C194.43 74.49 194.52 74.08 194.61 73.67C194.7 73.25 194.79 72.84 194.88 72.42C200.38 45.69 196.78 24.16 184.49 17.07C172.7 10.28 153.42 17.36 133.95 34.31C133.47 34.72 133 35.15 132.52 35.57C132.05 35.99 131.58 36.42 131.11 36.85C130.64 37.28 130.17 37.72 129.71 38.15C129.24 38.59 128.78 39.03 128.33 39.47C128.02 39.18 127.71 38.88 127.4 38.59C127.09 38.3 126.78 38.01 126.47 37.72C126.16 37.43 125.84 37.15 125.53 36.86C125.22 36.58 124.9 36.29 124.58 36.01C104.18 17.89 83.72 10.26 71.44 17.37C59.67 24.19 56.18 44.43 61.14 69.76C61.26 70.39 61.39 71.01 61.52 71.64C61.65 72.26 61.78 72.89 61.92 73.51C62.06 74.13 62.21 74.76 62.35 75.38C62.5 76 62.65 76.62 62.81 77.24C59.91 78.06 57.12 78.94 54.44 79.87C30.52 88.21 15.24 101.28 15.24 114.84C15.24 128.85 31.64 142.89 56.56 151.41C57.07 151.58 57.57 151.75 58.08 151.91C58.59 152.08 59.09 152.24 59.6 152.4C60.11 152.56 60.62 152.72 61.13 152.87C61.65 153.02 62.16 153.17 62.67 153.32C62.5 153.99 62.34 154.66 62.19 155.33C62.03 156 61.88 156.67 61.73 157.34C61.58 158.01 61.44 158.68 61.3 159.36C61.16 160.03 61.03 160.71 60.9 161.38C56.17 186.28 59.86 206.04 71.61 212.81C83.74 219.81 104.1 212.62 123.92 195.29C125.49 193.92 127.06 192.47 128.64 190.94C129.13 191.42 129.63 191.9 130.14 192.37C130.64 192.84 131.14 193.31 131.65 193.77C132.16 194.24 132.67 194.7 133.19 195.15C133.71 195.61 134.22 196.06 134.75 196.52C153.95 213.04 172.92 219.71 184.65 212.92C196.77 205.9 200.71 184.67 195.59 158.84C195.2 156.87 194.75 154.85 194.24 152.8C195.67 152.38 197.07 151.94 198.44 151.49C224.35 142.91 241.2 129.03 241.2 114.84C241.2 101.24 225.43 88.08 201.02 79.67L201.03 79.67Z" />
	<path id="Layer" class="shp0" d="M195.41 142.33C194.17 142.74 192.9 143.13 191.61 143.52C188.75 134.46 184.89 124.84 180.17 114.89C184.68 105.18 188.39 95.68 191.17 86.68C193.48 87.35 195.72 88.06 197.88 88.8C218.79 96 231.55 106.64 231.55 114.84C231.55 123.58 217.77 134.92 195.41 142.33L195.41 142.33ZM186.13 160.72C188.39 172.14 188.71 182.47 187.21 190.54C185.87 197.79 183.16 202.63 179.81 204.57C172.69 208.69 157.46 203.33 141.04 189.2C139.16 187.58 137.26 185.85 135.36 184.02C141.73 177.05 148.09 168.96 154.3 159.97C165.22 159 175.54 157.41 184.9 155.25C185.36 157.11 185.77 158.93 186.13 160.72L186.13 160.72ZM92.28 203.85C85.32 206.31 79.78 206.38 76.43 204.45C69.3 200.34 66.34 184.47 70.38 163.19C70.5 162.56 70.62 161.93 70.75 161.3C70.88 160.67 71.02 160.05 71.15 159.42C71.29 158.8 71.43 158.17 71.58 157.55C71.72 156.93 71.88 156.3 72.03 155.68C81.29 157.73 91.53 159.2 102.48 160.09C108.73 168.89 115.28 176.97 121.88 184.05C121.53 184.39 121.17 184.73 120.82 185.07C120.46 185.4 120.11 185.73 119.75 186.06C119.39 186.39 119.03 186.72 118.67 187.05C118.3 187.37 117.94 187.7 117.57 188.02C108.8 195.68 100.02 201.12 92.28 203.85L92.28 203.85ZM59.68 142.27C48.67 138.51 39.57 133.61 33.33 128.27C27.73 123.47 24.9 118.71 24.9 114.84C24.9 106.61 37.16 96.12 57.62 88.99C58.26 88.76 58.91 88.55 59.55 88.33C60.2 88.12 60.84 87.91 61.49 87.71C62.14 87.5 62.79 87.3 63.44 87.11C64.09 86.91 64.74 86.72 65.4 86.54C68.23 95.74 71.94 105.35 76.41 115.08C71.88 124.95 68.12 134.72 65.26 144.02C64.79 143.89 64.33 143.75 63.86 143.61C63.39 143.47 62.93 143.33 62.46 143.18C62 143.04 61.53 142.89 61.07 142.74C60.61 142.58 60.14 142.43 59.68 142.27L59.68 142.27ZM70.61 67.9C66.36 46.2 69.18 29.83 76.28 25.72C83.84 21.35 100.55 27.59 118.17 43.23C119.3 44.23 120.43 45.28 121.56 46.36C115 53.41 108.51 61.43 102.31 70.18C91.69 71.16 81.51 72.75 72.16 74.87C72.02 74.29 71.88 73.71 71.74 73.13C71.6 72.55 71.47 71.97 71.34 71.39C71.21 70.81 71.09 70.23 70.96 69.65C70.84 69.07 70.72 68.49 70.61 67.9L70.61 67.9ZM168.08 91.97C167.52 91.02 166.97 90.07 166.4 89.12C165.84 88.17 165.27 87.23 164.7 86.28C164.13 85.34 163.55 84.4 162.97 83.47C162.39 82.53 161.8 81.6 161.21 80.67C168.42 81.58 175.32 82.79 181.81 84.27C179.86 90.51 177.43 97.04 174.58 103.73C174.05 102.74 173.53 101.75 173 100.77C172.46 99.78 171.93 98.8 171.38 97.82C170.84 96.84 170.3 95.86 169.74 94.89C169.19 93.91 168.64 92.94 168.08 91.97L168.08 91.97ZM128.33 53.26C132.78 58.08 137.24 63.47 141.63 69.31C139.4 69.2 137.18 69.12 134.95 69.07C132.73 69.02 130.5 68.99 128.27 68.99C126.05 68.99 123.82 69.02 121.59 69.07C119.37 69.12 117.14 69.2 114.92 69.3C119.31 63.51 123.81 58.14 128.33 53.26L128.33 53.26ZM88.33 92.04C87.77 93 87.22 93.96 86.68 94.93C86.14 95.9 85.6 96.87 85.07 97.84C84.54 98.82 84.01 99.79 83.49 100.77C82.97 101.75 82.46 102.74 81.95 103.72C79.14 97.06 76.73 90.5 74.77 84.17C81.22 82.73 88.09 81.55 95.25 80.65C94.65 81.59 94.06 82.53 93.47 83.47C92.88 84.41 92.3 85.36 91.72 86.3C91.15 87.25 90.57 88.21 90.01 89.16C89.44 90.12 88.88 91.07 88.33 92.04L88.33 92.04ZM95.46 149.72C88.06 148.89 81.08 147.78 74.64 146.37C76.63 139.93 79.09 133.23 81.96 126.42C82.47 127.41 82.99 128.39 83.51 129.38C84.03 130.36 84.56 131.33 85.09 132.31C85.63 133.28 86.17 134.25 86.71 135.22C87.26 136.19 87.81 137.15 88.37 138.12C88.93 139.1 89.51 140.07 90.09 141.05C90.67 142.02 91.25 142.99 91.84 143.96C92.44 144.93 93.03 145.89 93.63 146.85C94.24 147.81 94.85 148.77 95.46 149.72L95.46 149.72ZM128.6 177.11C124.02 172.17 119.46 166.71 115 160.84C119.33 161.01 123.74 161.09 128.22 161.09C132.83 161.09 137.38 160.99 141.86 160.79C137.46 166.77 133.02 172.24 128.6 177.11ZM174.67 126.08C177.69 132.96 180.23 139.62 182.26 145.95C175.7 147.45 168.63 148.65 161.18 149.55C161.78 148.6 162.37 147.65 162.96 146.7C163.54 145.75 164.13 144.79 164.7 143.83C165.28 142.87 165.86 141.91 166.42 140.95C166.99 139.99 167.56 139.02 168.11 138.05C168.68 137.06 169.25 136.08 169.8 135.08C170.36 134.09 170.91 133.1 171.46 132.1C172 131.1 172.54 130.1 173.08 129.1C173.61 128.09 174.14 127.09 174.67 126.08L174.67 126.08ZM159.75 133.23C158.9 134.71 158.03 136.19 157.15 137.67C156.27 139.14 155.38 140.6 154.48 142.06C153.57 143.52 152.66 144.97 151.73 146.41C150.8 147.85 149.86 149.29 148.91 150.72C142.21 151.2 135.28 151.44 128.22 151.44C121.19 151.44 114.35 151.22 107.76 150.8C106.79 149.37 105.83 147.94 104.88 146.5C103.93 145.05 103 143.6 102.08 142.14C101.16 140.68 100.25 139.21 99.36 137.74C98.46 136.26 97.58 134.77 96.72 133.28C95.86 131.79 95.01 130.3 94.18 128.8C93.35 127.3 92.53 125.79 91.73 124.27C90.92 122.75 90.13 121.23 89.36 119.69C88.59 118.16 87.83 116.62 87.08 115.07C87.82 113.53 88.58 111.99 89.35 110.45C90.13 108.92 90.91 107.39 91.71 105.88C92.52 104.36 93.33 102.85 94.16 101.34C94.99 99.84 95.83 98.35 96.69 96.86L96.69 96.86C97.55 95.37 98.42 93.89 99.31 92.42C100.19 90.95 101.09 89.49 102 88.03C102.92 86.58 103.84 85.14 104.78 83.7C105.72 82.26 106.68 80.84 107.65 79.42C114.37 78.91 121.26 78.64 128.22 78.64C135.22 78.64 142.12 78.91 148.84 79.42C149.79 80.84 150.74 82.26 151.67 83.7C152.6 85.13 153.52 86.57 154.43 88.02C155.34 89.47 156.23 90.93 157.12 92.39C158 93.85 158.87 95.33 159.72 96.81C160.58 98.29 161.43 99.78 162.27 101.28C163.1 102.78 163.93 104.28 164.74 105.79C165.55 107.3 166.35 108.82 167.14 110.35C167.93 111.87 168.7 113.4 169.46 114.94C168.71 116.49 167.94 118.03 167.16 119.57C166.38 121.11 165.58 122.64 164.77 124.17C163.96 125.69 163.14 127.21 162.3 128.72C161.47 130.23 160.62 131.73 159.75 133.23L159.75 133.23ZM179.67 25.44C187.23 29.8 190.18 47.4 185.42 70.47C185.34 70.85 185.26 71.22 185.18 71.6C185.1 71.97 185.02 72.35 184.93 72.72C184.85 73.1 184.76 73.47 184.67 73.85C184.59 74.22 184.5 74.59 184.41 74.96C175.03 72.8 164.85 71.19 154.19 70.19C147.98 61.35 141.55 53.31 135.09 46.35C135.52 45.95 135.94 45.54 136.37 45.14C136.8 44.74 137.23 44.34 137.66 43.94C138.09 43.54 138.53 43.15 138.97 42.76C139.41 42.36 139.85 41.97 140.29 41.59C156.97 27.07 172.56 21.34 179.67 25.44L179.67 25.44Z" />
	<path id="Layer" class="shp1" d="M128.22 94.67C139.37 94.67 148.4 103.7 148.4 114.84C148.4 125.99 139.37 135.02 128.22 135.02C117.08 135.02 108.04 125.99 108.04 114.84C108.04 103.7 117.08 94.67 128.22 94.67" />
</svg>